<svg width="21" height="22" viewBox="0 0 21 22" fill="none" xmlns="http://www.w3.org/2000/svg">
<path d="M8.53998 1.48L3.19998 4.45003C1.98998 5.12003 1 6.80001 1 8.18001V13.83C1 15.21 1.98998 16.89 3.19998 17.56L8.53998 20.53C9.67998 21.16 11.55 21.16 12.69 20.53L18.03 17.56C19.24 16.89 20.23 15.21 20.23 13.83V8.18001C20.23 6.80001 19.24 5.12003 18.03 4.45003L12.69 1.48C11.54 0.84 9.67998 0.84 8.53998 1.48Z" fill="#EE8A42" stroke="#464646" stroke-width="1.5" stroke-linecap="round" stroke-linejoin="round"/>
<path d="M1.78003 6.43994L10.61 11.5499L19.38 6.46991" stroke="#464646" stroke-width="1.5" stroke-linecap="round" stroke-linejoin="round"/>
<path d="M10.61 20.61V11.54" stroke="#464646" stroke-width="1.5" stroke-linecap="round" stroke-linejoin="round"/>
<path d="M15.61 12.2401V8.58014L6.12 3.1001" stroke="#464646" stroke-width="1.5" stroke-linecap="round" stroke-linejoin="round"/>
</svg>
