<svg width="23" height="22" viewBox="0 0 23 22" fill="none" xmlns="http://www.w3.org/2000/svg">
<path d="M21.6099 16.91C21.6299 17.66 21.4299 18.37 21.0699 18.98C20.8699 19.34 20.5999 19.6701 20.2999 19.9401C19.6099 20.5801 18.6999 20.9701 17.6899 21.0001C16.2299 21.0301 14.9399 20.2801 14.2299 19.1301C13.8499 18.5401 13.6199 17.8301 13.6099 17.0801C13.5799 15.8201 14.1399 14.6801 15.0399 13.9301C15.7199 13.3701 16.5799 13.0201 17.5199 13.0001C19.7299 12.9501 21.5599 14.7 21.6099 16.91Z" fill="#3BCEAC" stroke="#464646" stroke-width="1.5" stroke-miterlimit="10" stroke-linecap="round" stroke-linejoin="round"/>
<path d="M20.22 8.17V13.83C20.22 13.88 20.22 13.92 20.21 13.97C19.51 13.36 18.61 13 17.61 13C16.67 13 15.8 13.33 15.11 13.88C14.19 14.61 13.61 15.74 13.61 17C13.61 17.75 13.82 18.46 14.19 19.06C14.28 19.22 14.39 19.37 14.51 19.51L12.68 20.52C11.54 21.16 9.67998 21.16 8.53998 20.52L3.19998 17.56C1.98998 16.89 1 15.21 1 13.83V8.17C1 6.79 1.98998 5.11002 3.19998 4.44002L8.53998 1.48C9.67998 0.84 11.54 0.84 12.68 1.48L18.02 4.44002C19.23 5.11002 20.22 6.79 20.22 8.17Z" fill="#FFD166" stroke="#464646" stroke-width="1.5" stroke-linecap="round" stroke-linejoin="round"/>
<path d="M16.0499 17.03L17.0599 17.99L19.1499 15.97" stroke="#464646" stroke-width="1.5" stroke-linecap="round" stroke-linejoin="round"/>
<path d="M1.78003 6.43994L10.61 11.5499L19.38 6.46991" stroke="#464646" stroke-width="1.5" stroke-linecap="round" stroke-linejoin="round"/>
<path d="M10.61 20.61V11.54" stroke="#464646" stroke-width="1.5" stroke-linecap="round" stroke-linejoin="round"/>
</svg>
