<svg width="22" height="22" viewBox="0 0 22 22" fill="none" xmlns="http://www.w3.org/2000/svg">
<path d="M2.00006 13.7471L2.00006 3.49989L2.00006 1.99989L14 0.999917L14 10.8721L12.0001 13.7471L2.00006 13.7471Z" fill="#118AB2"/>
<path d="M11 13H12C13.1 13 14 12.1 14 11V1H5C3.5 1 2.19001 1.82999 1.51001 3.04999" stroke="#464646" stroke-width="1.5" stroke-linecap="round" stroke-linejoin="round"/>
<path d="M1 16C1 17.66 2.34 19 4 19H5C5 17.9 5.9 17 7 17C8.1 17 9 17.9 9 19H13C13 17.9 13.9 17 15 17C16.1 17 17 17.9 17 19H18C19.66 19 21 17.66 21 16V13H18C17.45 13 17 12.55 17 12V9C17 8.45 17.45 8 18 8H19.29L17.58 5.01001C17.22 4.39001 16.56 4 15.84 4H14V11C14 12.1 13.1 13 12 13H11" stroke="#464646" stroke-width="1.5" stroke-linecap="round" stroke-linejoin="round"/>
<path d="M7 21C8.10457 21 9 20.1046 9 19C9 17.8954 8.10457 17 7 17C5.89543 17 5 17.8954 5 19C5 20.1046 5.89543 21 7 21Z" fill="#EAEBF3" stroke="#464646" stroke-width="1.5" stroke-linecap="round" stroke-linejoin="round"/>
<path d="M15 21C16.1046 21 17 20.1046 17 19C17 17.8954 16.1046 17 15 17C13.8954 17 13 17.8954 13 19C13 20.1046 13.8954 21 15 21Z" fill="#EAEBF3" stroke="#464646" stroke-width="1.5" stroke-linecap="round" stroke-linejoin="round"/>
<path d="M21 11V13H18C17.45 13 17 12.55 17 12V9C17 8.45 17.45 8 18 8H19.29L21 11Z" stroke="#464646" stroke-width="1.5" stroke-linecap="round" stroke-linejoin="round"/>
<path d="M1 7H7" stroke="#464646" stroke-width="1.5" stroke-linecap="round" stroke-linejoin="round"/>
<path d="M1 10H5" stroke="#464646" stroke-width="1.5" stroke-linecap="round" stroke-linejoin="round"/>
<path d="M1 13H3" stroke="#464646" stroke-width="1.5" stroke-linecap="round" stroke-linejoin="round"/>
</svg>
